<svg version="1.2" xmlns="http://www.w3.org/2000/svg" viewBox="0 0 111 111" width="111" height="111">
	<title>Vector Smart Object21-ai</title>
	<style>
		.s0 { fill: #ffffff } 
		.s1 { fill: none;stroke: #666f74;stroke-width: 3 } 
		.s2 { fill: none;stroke: #666f74;stroke-linecap: round;stroke-linejoin: round;stroke-width: 3 } 
		.s3 { fill: #b9c2c6 } 
	</style>
	<g id="Layer 1">
		<g id="&lt;Group&gt;">
			<path id="&lt;Path&gt;" class="s0" d="m105.5 2c2.2 0 3.5 1.3 3.5 3.5v82c0 2.2-1.3 4.5-3.5 4.5h-9.5c-2.2 0-4.8 1.4-5.8 3.3l-5.4 10.4c-1 2-2.6 2.1-3.6 0.1l-5.4-10.5c-1-1.9-3.6-3.3-5.8-3.3h-64.5c-2.2 0-4.5-2.3-4.5-4.5v-82c0-2.2 2.3-3.5 4.5-3.5z"/>
			<path id="&lt;Path&gt;" class="s1" d="m105.5 1.5c2.2 0 4 1.8 4 4v82c0 2.2-1.8 4-4 4h-9.5c-2.2 0-4.8 1.6-5.8 3.6l-5.4 10.6c-1 1.9-2.6 1.9-3.6 0l-5.4-10.6c-1-2-3.6-3.6-5.8-3.6h-64.5c-2.2 0-4-1.8-4-4v-82c0-2.2 1.8-4 4-4z"/>
		</g>
		<path id="&lt;Path&gt;" class="s2" d="m56 109.5h45"/>
		<path id="&lt;Path&gt;" class="s2" d="m47 109.5h-18"/>
		<path id="&lt;Path&gt;" class="s3" d="m35.5 42.5h-24.5v-24.5h24.5z"/>
		<path id="&lt;Path&gt;" class="s3" d="m68.3 42.5h-24.6v-24.5h24.6z"/>
		<path id="&lt;Path&gt;" class="s3" d="m101 42.5h-24.5v-24.5h24.5z"/>
		<path id="&lt;Path&gt;" class="s3" d="m35.5 75h-24.5v-24.5h24.5z"/>
		<path id="&lt;Path&gt;" class="s3" d="m68.3 75h-24.6v-24.5h24.6z"/>
	</g>
</svg>